<?xml version="1.0" encoding="UTF-8" standalone="no"?>
<svg width="500px" height="500px" viewBox="0 0 500 500" version="1.1" xmlns="http://www.w3.org/2000/svg" xmlns:xlink="http://www.w3.org/1999/xlink">
    <!-- Generator: Sketch 39.1 (31720) - http://www.bohemiancoding.com/sketch -->
    <title>PHI</title>
    <desc>Created with Sketch.</desc>
    <defs></defs>
    <g id="NBA" stroke="none" stroke-width="1" fill="none" fill-rule="evenodd">
        <g id="PHI">
            <g id="Page-1" transform="translate(1.000000, 0.000000)">
                <g id="Group-3" transform="translate(0.000000, 0.769316)" fill="#FEFEFE">
                    <path d="M498.943107,249.106575 C498.943107,386.652718 387.474363,498.15189 249.983521,498.15189 C112.484725,498.15189 1.01598146,386.652718 1.01598146,249.106575 C1.01598146,111.560432 112.484725,0.0612589104 249.983521,0.0612589104 C387.474363,0.0612589104 498.943107,111.560432 498.943107,249.106575" id="Fill-1"></path>
                </g>
                <path d="M15.8156522,298.805053 C28.8823722,361.368699 65.5375834,415.101515 118.989455,450.114562 C172.465185,485.103742 236.343392,497.180499 298.901407,484.10928 C361.427611,471.046016 415.682731,434.736189 450.150878,380.923816 C484.452011,327.366026 496.572329,263.465822 484.141846,200.949911 C471.70341,138.370354 434.435821,84.7807408 380.920326,49.7438264 C327.373019,14.6830448 263.510717,2.57446538 201.07995,15.6218177 C138.53784,28.6850815 84.8076153,65.3608707 49.8225265,118.839104 C14.8453906,172.317337 2.75688529,236.225496 15.8156522,298.805053" id="Fill-4" fill="#006AB6"></path>
                <path d="M331.44096,63.3926298 C332.236256,72.7008019 327.878032,81.7941701 318.533299,90.4897531 C273.662676,57.5690555 230.923447,41.3473778 188.995421,41.1962195 C179.984712,41.1643966 171.220546,41.8883656 162.718828,43.2169679 C175.936654,37.6638875 189.79867,33.3280295 204.137864,30.3366853 C241.588372,22.5082739 279.579681,24.3619526 315.216913,35.3010438 C322.955147,42.6839358 330.494557,52.5410514 331.44096,63.3926298" id="Fill-6" fill="#FEFEFE"></path>
                <path d="M284.625042,449.956244 C331.786118,406.653354 353.648817,313.810304 366.699631,258.33519 L368.743542,249.655518 C375.455844,221.404818 387.345525,200.354029 400.102079,187.712417 C447.414263,261.22311 441.004174,337.176203 429.042916,384.830862 C396.34828,428.348555 349.568946,458.174484 295.822815,469.415892 C280.521312,472.606129 265.124374,474.189314 249.854683,474.205225 C261.044503,468.628278 272.759219,460.831689 284.625042,449.956244" id="Fill-8" fill="#FEFEFE"></path>
                <path d="M370.30789,135.001114 C389.426816,118.946506 404.823754,106.702679 415.623879,98.7469768 C439.260089,124.531409 456.486209,155.550694 465.974095,189.776127 C457.130399,177.953952 445.829237,166.696633 433.605531,164.190587 C423.059901,162.01868 412.24387,165.049803 402.103841,172.194024 C393.172662,159.679703 382.642938,147.213117 370.30789,135.001114" id="Fill-10" fill="#FEFEFE"></path>
                <path d="M30.1126957,239.745895 C51.8799583,181.255569 131.719764,157.388461 161.774015,148.406473 L163.110113,148.008688 C172.979742,145.049166 187.128065,142.646544 203.519124,139.870004 C242.250059,133.314505 289.975796,125.15991 318.765526,103.631778 C330.440477,112.542165 342.449453,122.757287 354.816312,134.39648 C289.562242,189.831816 188.718658,282.969227 81.0355245,397.443833 C55.9439229,368.803303 38.5189787,334.036883 30.5262498,295.722219 C27.3371113,280.495004 25.7544714,265.180276 25.7306125,249.976928 C28.283514,244.041974 30.0888368,239.817496 30.1126957,239.745895" id="Fill-12" fill="#FEFEFE"></path>
                <path d="M362.758142,127.687436 C350.629871,116.23918 338.676566,105.936545 326.874368,96.7874873 C337.785834,86.1507128 342.780296,74.6228997 341.706646,62.466586 C341.062456,55.0757383 338.199389,48.2258783 334.278577,42.0999873 C347.552074,47.5337322 360.404064,54.280168 372.691394,62.307472 C385.678584,70.8280295 397.615983,80.5180754 408.384296,91.2184954 C397.067228,99.5640275 381.622572,111.863544 362.758142,127.687436" id="Fill-14" fill="#FEFEFE"></path>
                <path d="M310.099976,97.2043661 C283.020133,115.900267 238.260852,123.505919 201.804465,129.695456 C185.071428,132.535642 170.636799,134.978042 160.146839,138.120545 L158.818694,138.526286 C129.997152,147.1264 57.4343084,168.86138 27.5311636,221.098523 C31.7939523,187.915288 43.5245743,155.869717 62.389005,127.054162 C78.2710742,102.765402 99.3861937,80.3462322 122.473648,64.1961558 C175.559683,41.7769857 235.135337,43.3124364 310.099976,97.2043661" id="Fill-16" fill="#FEFEFE"></path>
                <path d="M431.529808,174.304672 C447.189194,177.526731 464.025619,203.83624 472.042206,219.01572 C478.937426,268.20583 469.465446,317.618699 444.811257,360.794297 C446.020108,353.196601 447.014228,345.193164 447.63456,336.807854 C450.768028,294.833567 445.049846,237.624109 408.052658,180.947683 C416.244211,175.155932 424.443717,172.848778 431.529808,174.304672" id="Fill-18" fill="#FEFEFE"></path>
                <path d="M362.396282,141.682313 C374.747235,153.854538 385.245147,166.281345 394.088843,178.819533 C378.779388,193.442114 365.752432,217.611539 358.706106,247.262443 L356.654242,255.973937 C343.865875,310.287519 322.472402,401.213245 277.649497,442.352183 C259.127044,459.329652 240.970427,468.200261 224.833863,472.838436 C190.373669,468.987876 157.058703,457.070233 127.203276,437.538983 C112.792505,428.095564 99.6860204,417.196251 88.0269752,405.07176 C196.696276,289.507224 297.985226,196.39368 362.396282,141.682313" id="Fill-20" fill="#FEFEFE"></path>
                <path d="M311.846447,316.492967 L317.906606,314.838181 C321.564969,313.867585 324.0622,312.626496 324.0622,307.296175 C324.0622,302.888716 322.821537,294.829589 317.532816,294.829589 C311.846447,294.829589 311.846447,304.392343 311.846447,309.579462 L311.846447,316.492967 Z" id="Fill-22" fill="#FEFEFE"></path>
                <path d="M238.914585,313.067242 C238.914585,293.901954 238.214725,277.338181 225.211628,277.338181 C214.61828,277.338181 212.797052,293.901954 212.797052,313.067242 C212.797052,332.224574 212.248297,348.828125 225.211628,348.828125 C236.24239,348.828125 238.914585,332.224574 238.914585,313.067242" id="Fill-24" fill="#FEFEFE"></path>
                <path d="M311.846447,316.492967 L317.906606,314.838181 C321.564969,313.867585 324.0622,312.626496 324.0622,307.296175 C324.0622,302.888716 322.821537,294.829589 317.532816,294.829589 C311.846447,294.829589 311.846447,304.392343 311.846447,309.579462 L311.846447,316.492967 Z" id="Fill-26" fill="#FEFEFE"></path>
                <path d="M211.365518,269.192337 L211.118976,269.192337 L211.588201,269.192337 C217.831278,259.478424 229.705053,254.840249 241.300475,254.840249 C267.640692,254.840249 283.809067,277.545825 283.809067,308.111634 C283.809067,344.29417 259.26622,365.830257 229.005192,365.830257 C182.39287,365.830257 165.476915,328.223651 165.476915,284.666179 C165.476915,234.505474 187.260084,193.072174 241.531111,193.072174 C262.662136,193.072174 280.079127,206.748027 280.079127,227.576057 C280.079127,241.08484 269.62098,247.696029 259.647963,247.696029 C245.006556,247.696029 240.346119,235.436291 238.262442,224.743826 C237.411475,220.177253 239.105457,210.121245 231.542188,210.121245 C215.787366,210.121245 213.202653,241.013238 212.526651,252.373982 L211.365518,269.192337 Z" id="Fill-28" fill="#FEFEFE"></path>
                <path d="M238.914585,313.067242 C238.914585,293.901954 238.214725,277.338181 225.211628,277.338181 C214.61828,277.338181 212.797052,293.901954 212.797052,313.067242 C212.797052,332.224574 212.248297,348.828125 225.211628,348.828125 C236.24239,348.828125 238.914585,332.224574 238.914585,313.067242" id="Fill-30" fill="#FEFEFE"></path>
                <path d="M389.88093,279.011265 C384.711503,279.011265 380.878175,281.254773 377.96739,284.484789 C377.657224,283.784687 377.331153,283.092541 376.973269,282.400395 L374.476039,277.53946 L338.663842,288.040988 L338.663842,307.635883 L345.272755,307.635883 C345.908992,307.635883 346.274828,307.71544 346.346405,307.675662 C346.656571,308.224605 347.221231,310.062373 347.221231,316.076884 L347.221231,338.862016 L340.675942,339.784878 L340.675942,361.328921 L390.278578,361.328921 L390.278578,339.792834 L383.765101,338.869972 L383.765101,332.187182 C383.765101,328.328666 384.56835,321.041242 385.570424,316.76903 C387.407558,317.310018 389.610529,317.763493 392.052089,317.763493 C400.943503,317.763493 407.154768,309.768012 407.154768,298.3118 C407.154768,286.768075 400.21183,279.011265 389.88093,279.011265" id="Fill-32" fill="#FEFEFE"></path>
                <path d="M452.004713,301.856861 C451.575253,300.225942 451.424147,299.613353 451.424147,298.73027 C451.424147,292.858961 449.085976,279.206976 427.39029,279.206976 C415.389267,279.206976 391.848493,288.451502 391.848493,309.820519 C391.848493,317.752355 394.210524,323.528195 397.606439,327.840186 C392.898285,330.616726 389.9875,335.955003 389.9875,342.645748 C389.9875,350.354824 393.860593,363.274885 419.842927,363.274885 C442.063508,363.274885 454.804157,351.755028 454.804157,331.666879 C454.804157,312.517503 453.118128,306.097251 452.004713,301.856861" id="Fill-34" fill="#FEFEFE"></path>
                <path d="M190.10804,186.62169 C188.756037,185.046461 186.783701,184.139511 184.692072,184.139511 C181.423404,184.139511 178.814831,186.200038 175.665458,189.525522 C165.088016,200.703284 150.788586,206.606415 134.317998,206.606415 C112.7257,206.606415 89.9961291,196.677699 71.9588066,179.36609 C70.5034142,177.965886 68.6185617,177.186227 66.6541796,177.186227 C57.8422954,177.186227 55.512077,191.371245 55.496171,191.506492 L55.4643592,262.550916 L61.1109637,263.37831 C82.5839666,266.552635 100.995078,265.916179 117.82355,261.373473 C99.6430744,277.65084 58.7250744,321.91637 59.3294997,364.153195 C59.4249353,371.933872 64.2444315,372.777177 66.3122021,372.777177 C68.8810095,372.777177 70.5749909,371.40084 71.6884058,370.49389 C71.9906185,370.247263 72.3644078,369.944947 72.8256797,369.602851 C78.6313434,365.29086 88.1033236,362.816637 98.7921073,362.816637 C107.635803,362.816637 116.392017,364.582803 122.889588,367.693483 C124.114345,368.266293 125.569737,368.878882 127.335295,368.878882 C129.38716,368.878882 131.272012,368.059445 132.631969,366.563773 C134.930376,364.049771 134.652022,360.947047 134.461151,358.846741 C131.462884,328.233198 138.206997,294.731734 151.249858,275.44711 L153.206287,272.543279 C164.308625,256.114753 187.404033,221.913187 191.762257,193.678399 C192.207623,190.790479 191.650915,188.419679 190.10804,186.62169" id="Fill-36" fill="#FEFEFE"></path>
                <path d="M327.085917,334.771194 C324.596639,334.771194 322.886752,333.195965 321.773337,331.246818 L334.498079,327.825866 C330.887433,332.145812 328.111849,334.484789 327.085917,334.771194 L327.085917,334.771194 Z M354.913338,322.328475 L354.587266,316.942464 C354.372536,313.402177 353.847641,310.04487 353.028485,306.894412 L352.789896,300.720787 L351.652623,302.494908 C346.300278,288.01553 334.283349,279.009674 318.934128,279.009674 C295.958015,279.009674 279.908934,297.180499 279.908934,323.203602 C279.908934,343.148549 291.583885,363.276477 317.661654,363.276477 C332.597321,363.276477 346.284372,355.750382 353.402275,343.641802 L354.380489,341.979061 L353.640864,322.67057 L354.913338,322.328475 Z" id="Fill-38" fill="#FEFEFE"></path>
                <path d="M269.428518,259.481606 C268.124232,257.627928 266.668839,255.559445 265.452036,253.737589 C276.737292,251.47817 286.68645,242.583694 286.68645,227.579239 C286.68645,204.141739 267.273265,186.464168 241.52952,186.464168 C189.77163,186.464168 158.866412,223.17178 158.866412,284.669361 C158.866412,340.446792 184.435191,372.444628 229.003602,372.444628 C265.165729,372.444628 290.41639,345.991917 290.41639,308.114817 C290.41639,289.259801 277.787083,271.335603 269.428518,259.481606" id="Fill-40" fill="#FEFEFE"></path>
                <path d="M311.985624,309.646289 C311.985624,304.459171 311.985624,294.896417 317.671993,294.896417 C322.960714,294.896417 324.201377,302.955544 324.201377,307.363003 C324.201377,312.693324 321.704146,313.934413 318.045782,314.897053 L311.985624,316.559795 L311.985624,309.646289 Z M327.223503,341.453189 C319.191009,341.453189 314.458996,334.118031 313.647793,326.69536 L348.131845,317.4031 C347.113866,300.576788 337.387391,285.683713 319.079668,285.683713 C299.594906,285.683713 286.655433,300.879105 286.655433,323.266452 C286.655433,340.753087 296.684121,356.728138 317.807193,356.728138 C329.87184,356.728138 341.586556,351.015943 347.837586,340.363257 L341.021896,332.256396 C337.689604,337.411692 333.808557,341.453189 327.223503,341.453189 L327.223503,341.453189 Z" id="Fill-42" fill="#006AB6"></path>
                <path d="M383.80407,354.777399 L347.427213,354.777399 L347.427213,345.596519 L353.972502,344.673657 L353.972502,316.144507 C353.972502,305.961208 352.636404,301.084362 345.415113,301.084362 L345.415113,293.057058 L371.238387,285.491185 C374.188937,291.235202 375.103528,297.83048 375.525035,304.3462 L375.77953,304.3462 C378.35629,296.58939 381.585193,285.690078 390.015335,285.690078 C397.411592,285.690078 400.688213,291.402272 400.688213,298.379423 C400.688213,305.444087 397.59451,311.211972 392.194447,311.211972 C388.480413,311.211972 385.30718,309.644698 383.53367,309.048021 C378.817562,307.440969 377.290593,327.990549 377.290593,332.254805 L377.290593,344.673657 L383.80407,345.596519 L383.80407,354.777399 Z" id="Fill-44" fill="#006AB6"></path>
                <path d="M444.956001,298.797098 C444.956001,304.453602 440.080834,307.269921 434.94322,307.269921 C428.676284,307.269921 424.270342,302.194183 423.125115,296.084203 C420.460872,296.084203 418.568067,297.452584 418.568067,301.987335 C418.568067,312.544552 448.343964,305.018457 448.343964,331.733707 C448.343964,351.742299 433.885475,356.730524 419.983694,356.730524 C411.521741,356.730524 396.73718,355.616726 396.73718,342.712576 C396.73718,336.873091 399.98199,332.409941 405.795606,332.409941 C414.830174,332.409941 416.388955,340.691828 417.907971,346.563136 C418.337431,348.106543 419.673529,348.361125 420.930097,348.361125 C425.701875,348.361125 429.161415,346.388111 429.161415,343.245608 C429.161415,331.256365 398.598174,335.902495 398.598174,309.879392 C398.598174,293.355397 418.130654,285.884992 427.531057,285.884992 C438.227794,285.884992 444.956001,289.473014 444.956001,298.797098" id="Fill-46" fill="#006AB6"></path>
                <path d="M225.35001,348.894953 C212.386679,348.894953 212.943386,332.291401 212.943386,313.13407 C212.943386,293.968782 214.756662,277.405009 225.35001,277.405009 C238.361059,277.405009 239.052967,293.968782 239.052967,313.13407 C239.052967,332.291401 236.380771,348.894953 225.35001,348.894953 M241.438856,254.906282 C229.843435,254.906282 217.977612,259.544456 211.726583,269.258369 L211.5039,269.258369 L211.257358,269.258369 L211.5039,269.258369 L212.665032,252.440014 C213.341034,241.087226 215.925748,210.187277 231.680569,210.187277 C239.251791,210.187277 237.549857,220.243285 238.400824,224.809859 C240.484501,235.502323 245.144937,247.762061 259.786344,247.762061 C269.759361,247.762061 280.217509,241.150872 280.217509,227.642089 C280.217509,206.814059 262.800518,193.138206 241.669492,193.138206 C187.398466,193.138206 165.615297,234.571506 165.615297,284.740167 C165.615297,328.289683 182.539205,365.896289 229.143574,365.896289 C259.412555,365.896289 283.947449,344.360202 283.947449,308.177667 C283.947449,277.611857 267.779073,254.906282 241.438856,254.906282" id="Fill-48" fill="#006AB6"></path>
                <path d="M62.2140398,192.252737 L62.2140398,256.908732 C98.4159321,262.247009 141.624386,258.698765 172.171721,214.011584 C173.452148,212.110171 174.207679,213.446729 173.388524,215.101515 C164.847041,232.484725 144.670371,248.547289 127.221568,262.247009 C110.448767,275.405741 65.482708,322.622836 66.0791803,364.127737 C66.1189451,367.317974 66.2223336,366.442846 69.021777,364.358452 C82.6770162,354.222887 109.398975,353.896703 125.813893,361.764893 C128.120253,362.838913 128.287265,362.520685 128.016864,359.561163 C124.86749,327.372391 132.104688,292.224096 145.90308,271.825675 C155.390966,257.67248 180.959746,221.291051 185.365688,192.738035 C185.819007,189.778513 184.299991,190.239944 180.601863,194.138238 C151.637167,224.743826 99.2748522,224.003946 65.482708,191.568546 C63.3513136,189.515975 62.3969579,190.430881 62.2140398,192.252737" id="Fill-50" fill="#ED174B"></path>
                <path d="M186.985707,153.433681 C186.985707,187.659114 159.245768,215.408605 125.032117,215.408605 C90.8105126,215.408605 63.070574,187.659114 63.070574,153.433681 C63.070574,119.200293 90.8105126,91.4587576 125.032117,91.4587576 C159.245768,91.4587576 186.985707,119.200293 186.985707,153.433681" id="Fill-52" fill="#FEFEFE"></path>
                <polygon id="Fill-54" fill="#006AB6" points="124.976446 93.6473714 127.044217 100.250605 134.042825 100.250605 128.348503 104.379614 130.440132 110.863512 124.976446 106.893616 119.425277 110.863512 121.493048 104.355747 115.83849 100.250605 122.837099 100.250605"></polygon>
                <polygon id="Fill-56" fill="#006AB6" points="166.214951 117.721328 168.338392 124.268871 175.360859 124.268871 169.658584 128.429703 171.750214 134.89769 166.238809 130.903927 160.703546 134.89769 162.842894 128.429703 157.076995 124.268871 164.115368 124.268871"></polygon>
                <polygon id="Fill-58" fill="#006AB6" points="148.516424 99.144762 150.62396 105.724128 157.65438 105.724128 151.960058 109.877005 154.027828 116.376814 148.53233 112.343273 143.036832 116.376814 145.104603 109.845182 139.410281 105.724128 146.416842 105.724128"></polygon>
                <polygon id="Fill-60" fill="#006AB6" points="172.96145 140.453157 175.068985 147.032523 182.067594 147.032523 176.405083 151.153577 178.456948 157.653386 173.001215 153.635756 167.489811 157.653386 169.589393 151.153577 163.855306 147.032523 170.822103 147.032523"></polygon>
                <polygon id="Fill-62" fill="#006AB6" points="170.006924 164.48097 172.106506 171.036469 179.128974 171.036469 173.434651 175.221169 175.518328 181.705066 170.02283 177.695392 164.55119 181.705066 166.595102 175.189346 160.916686 171.036469 167.923247 171.036469"></polygon>
                <polygon id="Fill-64" fill="#006AB6" points="156.750128 183.665351 158.817899 190.244717 165.856272 190.244717 160.16195 194.397594 162.22972 200.86558 156.789893 196.871818 151.25463 200.86558 153.338306 194.397594 147.612172 190.244717 154.642593 190.244717"></polygon>
                <polygon id="Fill-66" fill="#006AB6" points="135.895866 194.396799 138.019307 200.976165 144.978151 200.976165 139.299734 205.136997 141.40727 211.644762 135.911772 207.643044 130.400368 211.644762 132.468138 205.129041 126.773816 200.976165 133.772424 200.976165"></polygon>
                <polygon id="Fill-68" fill="#006AB6" points="82.9402594 115.589995 80.816818 122.137538 73.8341155 122.137538 79.4966259 126.314282 77.4288553 132.790224 82.9004945 128.772594 88.4516634 132.790224 86.3520809 126.314282 92.078215 122.137538 85.0477948 122.137538"></polygon>
                <polygon id="Fill-70" fill="#006AB6" points="100.203758 99.144762 98.0962229 105.724128 91.0976146 105.724128 96.7919368 109.877005 94.6923543 116.376814 100.203758 112.343273 105.715162 116.376814 103.647392 109.845182 109.341714 105.724128 102.3272 105.724128"></polygon>
                <polygon id="Fill-72" fill="#006AB6" points="74.887088 137.515116 72.8193173 144.062659 65.804803 144.062659 71.5150312 148.191669 69.4313546 154.715345 74.887088 150.721582 80.3984921 154.715345 78.3307214 148.191669 84.0648085 144.062659 77.0662001 144.062659"></polygon>
                <polygon id="Fill-74" fill="#006AB6" points="77.0638142 161.505537 74.9244669 168.100815 67.9258585 168.100815 73.6201808 172.261647 71.5524101 178.761456 77.0240494 174.743826 82.5434065 178.761456 80.435871 172.245736 86.1301932 168.100815 79.1315849 168.100815"></polygon>
                <polygon id="Fill-76" fill="#006AB6" points="90.3031135 181.125891 88.2194369 187.713213 81.1969696 187.713213 86.8912919 191.858134 84.7917094 198.334076 90.3031135 194.316446 95.8542824 198.334076 93.730841 191.842223 99.4251632 187.713213 92.4265549 187.713213"></polygon>
                <polygon id="Fill-78" fill="#006AB6" points="111.158966 193.571792 109.07529 200.16707 102.052823 200.16707 107.747145 204.311991 105.679374 210.779977 111.119202 206.825993 116.686276 210.779977 114.562835 204.264257 120.296922 200.16707 113.282408 200.16707"></polygon>
            </g>
        </g>
    </g>
</svg>